# xmcd
#
# Track frame offsets:
#	150
#	11955
#	24607
#	36322
#	50665
#	61445
#	73550
#	86917
#	97790
#	108695
#
# Disc length: 1607
#
# Revision: 1
# Processed by: cddbd v1.5.1PL0 Copyright (c) Steve Scherf et al.
# Submitted via: CDex 1.51
# Normalized: r0:TRMNUM
#
DISCID=8b06450a
DTITLE=Arnold, Eddy - Country kicks
DYEAR=1900
DGENRE=Country
TTITLE0=He'll Have To Go
TTITLE1=Chained To A Memory
TTITLE2=I'm Throwing Rice [At The Girl I Love]
TTITLE3=Whispering Hope
TTITLE4=Eddy's Song
TTITLE5=Casey Jones [The Brave Engineer]
TTITLE6=Wagon Wheels
TTITLE7=Cuddle Buggin' Baby
TTITLE8=Wabash Cannonball
TTITLE9=Just A Little Lovin'
EXTD=
EXTT0=
EXTT1=
EXTT2=
EXTT3=
EXTT4=
EXTT5=
EXTT6=
EXTT7=
EXTT8=
EXTT9=
PLAYORDER=
